<svg xmlns="http://www.w3.org/2000/svg" xmlns:xlink="http://www.w3.org/1999/xlink" width="117" height="93" viewBox="0 0 117 93">
  <defs>
    <style>
      .cls-1 {
        filter: url(#filter);
      }

      .cls-2, .cls-3 {
        fill: #fff;
      }

      .cls-2 {
        fill-opacity: 0;
        stroke: #fff;
        stroke-linejoin: round;
        stroke-width: 2px;
      }

      .cls-3 {
        fill-rule: evenodd;
      }
    </style>
    <filter id="filter" filterUnits="userSpaceOnUse">
      <feOffset result="offset" in="SourceAlpha"/>
      <feGaussianBlur result="blur" stdDeviation="4.472"/>
      <feFlood result="flood" flood-opacity="0.4"/>
      <feComposite result="composite" operator="in" in2="blur"/>
      <feBlend result="blend" in="SourceGraphic"/>
    </filter>
  </defs>
  <g id="Next_copy_4" data-name="Next copy 4" class="cls-1">
    <g id="Next_copy_5" data-name="Next copy 5" class="cls-1">
      <g>
        <circle class="cls-2" cx="74" cy="47.922" r="39.938"/>
        <path id="Shape_4_copy_3" data-name="Shape 4 copy 3" class="cls-3" d="M4.731,47.774H73.754v1.38H4.731v-1.38m66.8-4.29a2.9,2.9,0,0,1-1.628,3.063c-0.8.179-3.587,0.51-2.787-3.1a1.426,1.426,0,0,0-2.442-1.366c-1.531,2.8,2.276,5.477,5.091,4.566-2.759,1.615-7.7,1.684-7.7,1.684a19.133,19.133,0,0,1,7.464,1.545c-2.746-.5-6.057,2.042-4.608,4.691a1.43,1.43,0,0,0,2.442-1.38c-0.718-3.187,1.379-3.3,2.442-3.159,1.325,0.773,1.987,1.807,1.725,3.118C76.748,50.754,88.3,48.257,88.3,48.257c-9.8-2.208-11.562-2.373-16.764-4.773m-4.247,4.847a11.173,11.173,0,0,0,2.83-1.092L70.1,47.209l0.066-.015,0.1-.06a4.678,4.678,0,0,0,1.416-1.282,3.222,3.222,0,0,0,.538-1.3,36.4,36.4,0,0,0,5.794,2.056c1.829,0.487,3.986.954,7.163,1.658-1.005.241-2.2,0.536-3.48,0.869a83.424,83.424,0,0,0-9.457,2.951,3.148,3.148,0,0,0-.553-1.328,4.812,4.812,0,0,0-1.53-1.333l-0.12-.07L69.9,49.339l-0.071-.009,0.024-.071a11.917,11.917,0,0,0-2.565-.928m-2.024,4.91a2.482,2.482,0,0,1,1.074-1.877q0.138-.108.29-0.206a3.3,3.3,0,0,0-.1.8c0,0.016,0,.032,0,0.047a6.1,6.1,0,0,0,.163,1.324v0l0.036,0.306a0.671,0.671,0,0,1-.232.554,0.891,0.891,0,0,1-.56.193l-0.3-.06-0.112-.093a2.02,2.02,0,0,1-.267-0.979v-0.01m-0.247-9.849V43.383a2.005,2.005,0,0,1,.262-0.968l0.119-.1,0.3-.061a0.893,0.893,0,0,1,.558.19,0.642,0.642,0,0,1,.226.534l-0.038.309v0a6.121,6.121,0,0,0-.159,1.315c0,0.015,0,.031,0,0.046a3.316,3.316,0,0,0,.1.82,3.484,3.484,0,0,1-.293-0.207,2.479,2.479,0,0,1-1.076-1.875m7.2-.024-0.68.116,0.68-.116M62.056,47.774l0-.138,0.2-.005a26,26,0,0,0,3.117-.314c0.374-.061.759-0.135,1.144-0.222a5.569,5.569,0,0,1-1.278-.739,3.837,3.837,0,0,1-1.609-2.973v0a3.392,3.392,0,0,1,.436-1.633l0,0,0,0a1.636,1.636,0,0,1,.726-0.667,2.09,2.09,0,0,1,.9-0.2,2.255,2.255,0,0,1,1.444.512,2.03,2.03,0,0,1,.72,1.57v0.021a2.766,2.766,0,0,1-.072.612,4.753,4.753,0,0,0-.126,1.015h0a1.235,1.235,0,0,0,.406,1.1,1.608,1.608,0,0,0,.95.246,3.46,3.46,0,0,0,.622-0.059,3.19,3.19,0,0,0,.906-0.832,1.82,1.82,0,0,0,.339-1.072,2.391,2.391,0,0,0-.035-0.393l-0.219-1.291,1.189,0.549-0.289.627,0.289-.627a36.78,36.78,0,0,0,6.547,2.419c2.284,0.609,5.75,1.768,10.653,2.873l0.029,0.286s-1.136.295-2.3,0.565A103.333,103.333,0,0,0,71.82,53.768l-1.229.562,0.265-1.325a2.113,2.113,0,0,0,.043-0.416,1.726,1.726,0,0,0-.338-1.031,3.335,3.335,0,0,0-.979-0.867c-0.1-.009-0.2-0.015-0.308-0.015a1.644,1.644,0,0,0-.959.245,1.21,1.21,0,0,0-.405,1.088h0a4.708,4.708,0,0,0,.13,1.02v0a2.805,2.805,0,0,1,.068.6v0.022a2.057,2.057,0,0,1-.721,1.586,2.263,2.263,0,0,1-1.451.519,2.073,2.073,0,0,1-.9-0.2,1.615,1.615,0,0,1-.721-0.672h0a3.41,3.41,0,0,1-.437-1.638v0a3.841,3.841,0,0,1,1.6-2.974,5.551,5.551,0,0,1,1.144-.683,23.121,23.121,0,0,0-2.74-.44h3.795a10.263,10.263,0,0,1,1.847.717,4,4,0,0,0-.712-0.062c-2.093,0-4.249,1.553-4.249,3.443a2.714,2.714,0,0,0,.352,1.311,1.119,1.119,0,0,0,1.012.51,1.417,1.417,0,0,0,1.482-1.436,2.134,2.134,0,0,0-.052-0.454,5.375,5.375,0,0,1-.146-1.173,1.832,1.832,0,0,1,2.053-2.022,4.209,4.209,0,0,1,.535.036,3.02,3.02,0,0,1,1.781,2.566,2.816,2.816,0,0,1-.057.552h0C76.748,50.754,88.3,48.257,88.3,48.257c-9.8-2.208-11.562-2.373-16.764-4.773h0a2.8,2.8,0,0,1-1.628,3.063,4.2,4.2,0,0,1-.882.1,1.837,1.837,0,0,1-2.048-2.037,5.424,5.424,0,0,1,.143-1.166,2.08,2.08,0,0,0,.055-0.463A1.4,1.4,0,0,0,65.7,41.565a1.143,1.143,0,0,0-1.025.511,2.706,2.706,0,0,0-.351,1.307c0,1.888,2.163,3.442,4.258,3.441a3.848,3.848,0,0,0,1.184-.182,11.149,11.149,0,0,1-3.121,1.132h-4.59m-0.021,1.241,0.021-1.241h4.59a25.3,25.3,0,0,1-4.578.552,24.9,24.9,0,0,1,5.618.828H63.891c-0.594-.063-1.214-0.109-1.856-0.139m8.081-1.776a11.173,11.173,0,0,1-2.83,1.092,11.917,11.917,0,0,1,2.565.928l-0.024.071L69.9,49.339l0.138,0.018,0.12,0.07a4.812,4.812,0,0,1,1.53,1.333,3.148,3.148,0,0,1,.553,1.328A83.424,83.424,0,0,1,81.7,49.136c1.281-.333,2.475-0.628,3.48-0.869-3.176-.7-5.333-1.17-7.163-1.658a36.4,36.4,0,0,1-5.794-2.056,3.222,3.222,0,0,1-.538,1.3,4.678,4.678,0,0,1-1.416,1.282l-0.1.06-0.066.015,0.013,0.029m-3.49,3.92q-0.152.1-.29,0.206a2.482,2.482,0,0,0-1.074,1.877v0.01a2.02,2.02,0,0,0,.267.979l0.112,0.093,0.3,0.06a0.891,0.891,0,0,0,.56-0.193,0.671,0.671,0,0,0,.232-0.554l-0.036-.306v0a6.1,6.1,0,0,1-.163-1.324c0-.016,0-0.031,0-0.047a3.3,3.3,0,0,1,.1-0.8m-1.349-8.744a2.005,2.005,0,0,0-.262.968v0.009a2.479,2.479,0,0,0,1.076,1.875,3.484,3.484,0,0,0,.293.207,3.316,3.316,0,0,1-.1-0.82c0-.015,0-0.031,0-0.046a6.121,6.121,0,0,1,.159-1.315v0l0.038-.309a0.642,0.642,0,0,0-.226-0.534,0.893,0.893,0,0,0-.558-0.19l-0.3.061-0.119.1m-3.209,5.911s4.939-.069,7.7-1.684h0a3.848,3.848,0,0,1-1.184.182c-2.1,0-4.258-1.553-4.258-3.441a2.706,2.706,0,0,1,.351-1.307,1.143,1.143,0,0,1,1.025-.511,1.4,1.4,0,0,1,1.472,1.414,2.08,2.08,0,0,1-.055.463,5.424,5.424,0,0,0-.143,1.166,1.837,1.837,0,0,0,2.048,2.037,4.2,4.2,0,0,0,.882-0.1,2.8,2.8,0,0,0,1.628-3.063c5.2,2.4,6.968,2.566,16.764,4.773,0,0-11.548,2.5-16.764,4.884a2.816,2.816,0,0,0,.057-0.552,3.02,3.02,0,0,0-1.781-2.566,4.209,4.209,0,0,0-.535-0.036,1.832,1.832,0,0,0-2.053,2.022,5.375,5.375,0,0,0,.146,1.173,2.134,2.134,0,0,1,.052.454,1.417,1.417,0,0,1-1.482,1.436,1.119,1.119,0,0,1-1.012-.51,2.714,2.714,0,0,1-.352-1.311c0-1.889,2.156-3.443,4.249-3.443a4,4,0,0,1,.712.063h0a19.133,19.133,0,0,0-7.464-1.545"/>
      </g>
    </g>
  </g>
</svg>
